<svg xmlns="http://www.w3.org/2000/svg" width="248" height="248" fill="none"><path fill="#C8C8C8" d="M199.243 215.393a61.6 61.6 0 0 0 18.967-21.586c28.352-53.117 21.948-131.44-32.652-165.034C160.322 13.248 124 3.423 96.72 19.37c-22.122 12.93-35.682 37.28-46.902 59.43-7.048 13.953-12.856 28.927-21.546 41.962-11.27 16.904-23.674 39.482-11.15 59.123 17.067 26.755 49.302 38.971 78.532 47.016 31.714 8.725 67.376 9.965 96.67-7.058a92 92 0 0 0 6.919-4.449"/><path fill="#fff" d="M199.243 215.393a61.6 61.6 0 0 0 18.967-21.586c28.352-53.117 21.948-131.44-32.652-165.034C160.322 13.248 124 3.423 96.72 19.37c-22.122 12.93-35.682 37.28-46.902 59.43-7.048 13.953-12.856 28.927-21.546 41.962-11.27 16.904-23.674 39.482-11.15 59.123 17.067 26.755 49.302 38.971 78.532 47.016 31.714 8.725 67.376 9.965 96.67-7.058a92 92 0 0 0 6.919-4.449" opacity=".7"/><g stroke="#000" stroke-miterlimit="10" opacity=".3"><path d="M224.192 39.913h-51.088v67.094h51.088z" opacity=".3"/><path d="M214.818 52.224h-32.339v42.472h32.339z" opacity=".3"/></g><path fill="#263238" stroke="#263238" stroke-miterlimit="10" d="M161.135 32.394H25.876v120.399h135.259z"/><path fill="#fff" stroke="#263238" stroke-linecap="round" stroke-linejoin="round" d="M158.571 29.462H23.311v120.399h135.26z"/><path fill="#fff" stroke="#263238" stroke-linecap="round" stroke-linejoin="round" d="M132.233 78.05h6.726v-6.725h-6.726zM141.037 78.05h6.726v-6.725h-6.726z"/><path stroke="#263238" stroke-linecap="round" stroke-linejoin="round" d="M129.544 75.095H95.375"/><path fill="#fff" stroke="#263238" stroke-linecap="round" stroke-linejoin="round" d="M132.233 93.927h6.726v-6.726h-6.726zM141.037 93.927h6.726v-6.726h-6.726z"/><path stroke="#263238" stroke-linecap="round" stroke-linejoin="round" d="M129.544 90.966H95.375"/><path fill="#fff" stroke="#263238" stroke-linecap="round" stroke-linejoin="round" d="M132.233 109.804h6.726v-6.726h-6.726zM141.037 109.804h6.726v-6.726h-6.726z"/><path stroke="#263238" stroke-linecap="round" stroke-linejoin="round" d="M129.544 106.843H95.375"/><path fill="#fff" stroke="#263238" stroke-linecap="round" stroke-linejoin="round" d="M67.932 78.05h6.726v-6.725h-6.726zM76.741 78.05h6.726v-6.725H76.74z"/><path stroke="#263238" stroke-linecap="round" stroke-linejoin="round" d="M65.244 75.094h-34.17"/><path fill="#fff" stroke="#263238" stroke-linecap="round" stroke-linejoin="round" d="M67.933 93.927h6.725v-6.726h-6.725zM76.741 93.927h6.726v-6.726H76.74z"/><path stroke="#263238" stroke-linecap="round" stroke-linejoin="round" d="M65.244 90.966h-34.17"/><path fill="#fff" stroke="#263238" stroke-linecap="round" stroke-linejoin="round" d="M67.933 109.804h6.725v-6.726h-6.725zM76.741 109.804h6.726v-6.726H76.74z"/><path stroke="#263238" stroke-linecap="round" stroke-linejoin="round" d="M65.244 106.843h-34.17"/><path fill="#fff" stroke="#263238" stroke-linecap="round" stroke-linejoin="round" d="M40.608 132.928h-7.41v7.411h7.41zM70.848 132.928h-7.41v7.411h7.41zM102.29 132.928h-7.41v7.41h7.41z"/><path stroke="#263238" stroke-linecap="round" stroke-linejoin="round" stroke-width="2" d="m78.947 73.576 1.146 2.302 5.55-5.362M78.947 89.275l1.146 2.297 5.55-5.362M69.375 105.737l1.15 2.297 5.551-5.362M142.877 73.389l1.146 2.296 5.55-5.362M133.612 89.464l1.146 2.296 5.55-5.357M133.612 105.594l1.146 2.296 5.55-5.357"/><path fill="#fff" stroke="#263238" stroke-linecap="round" stroke-linejoin="round" d="M158.571 29.462H23.311v18.809h135.26z"/><path fill="#DBDBDB" stroke="#263238" stroke-linecap="round" stroke-linejoin="round" d="M158.57 29.462h-5.093v120.399h5.093z"/><path fill="#949494" stroke="#263238" stroke-linecap="round" stroke-linejoin="round" d="M158.57 47.557h-5.093v23.237h5.093z"/><path fill="#DBDBDB" stroke="#263238" stroke-linecap="round" stroke-linejoin="round" d="M158.571 29.462H23.311v9.147h135.26z"/><path fill="#fff" stroke="#263238" stroke-linecap="round" stroke-linejoin="round" d="M83.51 32.126H30.17v3.81h53.34z"/><path stroke="#263238" stroke-linecap="round" stroke-linejoin="round" d="M150.586 32.304h4.682M150.586 34.284h4.682M150.586 36.268h4.682"/><path fill="#263238" d="M70.56 55.88c0-1.176.62-1.846 1.751-1.846s1.746.67 1.746 1.845v3.81c0 1.17-.615 1.84-1.746 1.84-1.13 0-1.75-.67-1.75-1.84zm1.156 3.883c0 .52.228.72.595.72s.596-.2.596-.72v-3.968c0-.526-.228-.724-.596-.724-.367 0-.595.198-.595.724zM75.829 56.142v5.303h-1.037v-7.326h1.443l1.186 4.384V54.12h1.026v7.326h-1.185zM79.27 54.119h1.156v6.279h1.91v1.047h-3.05zM82.832 54.119h1.15v7.326h-1.15zM85.838 56.142v5.303h-1.022v-7.326h1.444l1.185 4.384V54.12h1.022v7.326h-1.17zM90.43 57.209h1.582v1.046H90.43v2.143h1.984v1.047h-3.135v-7.326h3.14v1.046h-1.984zM94.422 54.119h3.556v1.046h-1.205v6.28h-1.15v-6.28h-1.201zM99.636 57.209h1.577v1.046h-1.577v2.143h1.984v1.047h-3.14v-7.326h3.14v1.046h-1.984zM103.883 54.034c1.121 0 1.696.67 1.696 1.845v.229h-1.086v-.303c0-.526-.208-.724-.575-.724s-.576.198-.576.724c0 1.488 2.247 1.79 2.247 3.884 0 1.17-.585 1.84-1.716 1.84s-1.696-.67-1.696-1.84v-.452h1.091v.526c0 .52.228.71.595.71s.595-.19.595-.71c0-1.488-2.247-1.79-2.247-3.884-.034-1.175.556-1.845 1.672-1.845M105.916 54.119h3.556v1.046h-1.2v6.28h-1.136v-6.28h-1.205zM38.966 131.142H37.8l-.198-1.329h-1.394l-.198 1.329h-1.076l1.17-7.326h1.687zm-2.629-2.326h1.111l-.555-3.705zM68.72 125.488v.258c0 .754-.229 1.235-.744 1.488.62.238.858.793.858 1.567v.6c0 1.131-.596 1.736-1.746 1.736h-1.81v-7.321h1.735c1.196 0 1.707.556 1.707 1.672m-2.292-.64v1.934h.451c.427 0 .69-.188.69-.773v-.407c0-.526-.179-.754-.585-.754zm0 2.976v2.252h.66c.387 0 .595-.179.595-.724v-.635c0-.685-.218-.893-.74-.893zM100.46 128.409v.992c0 1.176-.586 1.845-1.716 1.845-1.131 0-1.717-.669-1.717-1.845v-3.809c0-1.17.586-1.84 1.716-1.84 1.131 0 1.717.67 1.717 1.84v.714h-1.087v-.818c0-.526-.233-.724-.6-.724s-.595.198-.595.724v3.968c0 .526.233.714.595.714s.6-.188.6-.714v-1.047z"/><path stroke="#263238" stroke-linecap="round" stroke-linejoin="round" d="M31.594 119.913h87.916"/><path stroke="#000" stroke-linecap="round" stroke-linejoin="round" d="M175.996 30.053h9.707v-9.707h-9.707zM188.708 30.053h9.707v-9.707h-9.707z" opacity=".3"/><path stroke="#000" stroke-linecap="round" stroke-linejoin="round" stroke-width="2" d="m178.084 24.185 1.657 3.313 4.87-5.362" opacity=".3"/><path stroke="#000" stroke-linecap="round" stroke-linejoin="round" d="M29.056 172.464h9.707v-9.706h-9.707zM41.763 172.464h9.707v-9.706h-9.707z" opacity=".3"/><path stroke="#000" stroke-linecap="round" stroke-linejoin="round" stroke-width="2" d="m31.134 166.596 1.656 3.314 4.871-5.362" opacity=".3"/><path stroke="#000" stroke-linecap="round" stroke-linejoin="round" d="M75.04 172.464h9.706v-9.706H75.04zM87.752 172.464h9.707v-9.706h-9.707z" opacity=".3"/><path stroke="#000" stroke-linecap="round" stroke-linejoin="round" stroke-width="2" d="m77.123 166.596 1.657 3.314 4.87-5.362" opacity=".3"/><g stroke="#000" stroke-linecap="round" stroke-linejoin="round" opacity=".3"><path d="M90.094 25.201a6.23 6.23 0 1 0-1.988-12.3 6.23 6.23 0 0 0 1.988 12.3" opacity=".3"/><path d="M90.842 21.303 89.1 19.051v-3.546" opacity=".3"/></g><g opacity=".3"><path fill="#000" d="M205.383 138.543h-.923l-.158-1.051h-1.121l-.159 1.051h-.838l.932-5.808h1.334zm-2.083-1.84h.878l-.442-2.941zM218.373 134.069v.208c.036.232-.002.469-.107.678-.104.21-.271.382-.478.493a1.19 1.19 0 0 1 .68 1.245v.496a1.23 1.23 0 0 1-.358 1.028 1.24 1.24 0 0 1-1.031.346h-1.433v-5.828h1.378c.943 0 1.349.436 1.349 1.334m-1.815-.496v1.538h.357c.338 0 .546-.149.546-.615v-.323c0-.416-.139-.6-.466-.6zm0 2.366v1.786h.521c.307 0 .496-.139.496-.571v-.496c0-.535-.179-.704-.59-.704zM231.528 136.4v.769c0 .932-.462 1.463-1.359 1.463-.898 0-1.364-.531-1.364-1.463v-3.021c0-.932.466-1.463 1.364-1.463.897 0 1.359.531 1.359 1.463v.566h-.863v-.645c0-.417-.184-.571-.471-.571-.288 0-.496.154-.496.571v3.14c0 .416.183.565.496.565.312 0 .471-.149.471-.565v-.809z" opacity=".3"/><path stroke="#000" stroke-miterlimit="10" d="M207.199 141.712h-7.058v7.058h7.058zM220.329 141.712h-7.058v7.058h7.058zM233.458 141.712h-7.059v7.058h7.059z" opacity=".3"/></g><path stroke="#263238" stroke-miterlimit="10" d="M39.898 223.478H24.964M234.771 223.478H44.764"/><path fill="#9E9E9E" stroke="#263238" stroke-miterlimit="10" d="m177.389 223.309 3.194-48.509 2.351-23.064-6.448-7.196-3.234-2.352s-4.553 3.968-7.782 4.846a574 574 0 0 0-6.334 1.766s-11.016 20.713-11.904 30.112-2.351 44.219-2.351 44.219l1.225.178z"/><path stroke="#263238" stroke-miterlimit="10" d="M162.247 183.317s-.551-.283.551-3.12"/><path fill="#263238" stroke="#263238" stroke-miterlimit="10" d="M160.953 148.304c.548 3.919.851 7.868.908 11.825 0 0 3.308-1.324 5.952-5.952a53.4 53.4 0 0 0 3.759-7.767z"/><path fill="#fff" stroke="#263238" stroke-miterlimit="10" d="m177.389 223.309 2.872-43.613c-2.817 1.438-8.377 3.814-14.513 3.918-7.35.124-16.452-5.585-16.452-5.585l-2.048.804v.079c-.883 9.424-2.352 44.219-2.352 44.219l1.226.178z"/><path fill="#fff" d="M172.607 198.896c0 11.235.387 22.043.496 24.404h21.651c.297-3.502 2.162-25.296 3.12-33.108 1.046-8.537 7.911-21.244 7.911-25.792s1.394-3.83-4.876-7.138c-6.269-3.308-20.098-10.451-22.012-11.324s-4.008-2.976-4.008-2.976.694 4.355.496 16.195-2.778 27.037-2.778 39.739"/><g fill="#000" opacity=".2"><path d="M174.889 143.007c.258 2.06.407 4.133.446 6.21v-5.789c-.278-.253-.446-.421-.446-.421M203.359 171.353v1.488c.169-.451.337-.887.496-1.319v-.179h.065c.064-.163.124-.332.183-.496h-.248v-6.175h1.92v-.496h-1.92v-5.287c-.154-.094-.317-.184-.496-.283v5.57h-5.208v-6.2h4.028l-.933-.496h-3.095v-1.637l-.496-.262v1.884h-5.208v-4.593l-.496-.257v4.85h-5.208v-6.185h2.594l-.962-.496h-1.632v-.838l-.496-.258v1.096h-5.208v-3.744q-.258-.136-.496-.248v3.992h-5.158v.496h5.158v6.2h-5.114v.496h5.114v6.2h-5.208v-2.356c-.099 2.421-.278 4.96-.496 7.544v1.488h-.129l-.044.496h.173v6.22h-.744l-.049.496h.818v6.2h-1.409l-.044.496h1.453v6.2h-1.934l-.03.496h1.984v6.2h-2.197v.496h2.202v6.2h-2.188v.496h2.183v6.2h-2.083v.496h2.073v11.78h.496v-11.795h5.173v11.78h.496v-11.78h5.208v11.78h.496v-11.78h5.208v11.78h.496v-11.78h3.338c0-.163 0-.327.045-.496h-3.383v-6.185h3.968c0-.163.035-.327.05-.496h-4.018v-6.2h4.583c0-.168.03-.327.05-.496h-4.633v-6.2h5.208v.66l.218-1.9q.106-.834.278-1.721v-3.735h.928l.148-.496h-1.076v-6.2h3.224c.065-.163.124-.332.189-.496h-3.413v-6.2zm-5.208-6.681h5.208v6.2h-5.208zm-17.608 46.361h-5.208v-6.185h5.208zm0-6.696h-5.208v-6.2h5.208zm0-6.696h-5.208v-6.185h5.208zm0-6.696h-5.208v-6.2h5.208zm0-6.696h-5.208v-6.185h5.208zm0-6.696h-5.208v-6.2h5.208zm0-6.696h-5.208v-6.185h5.208zm5.704 40.176h-5.208v-6.185h5.208zm0-6.696h-5.208v-6.2h5.208zm0-6.696h-5.208v-6.185h5.208zm0-6.696h-5.208v-6.2h5.208zm0-6.696h-5.208v-6.185h5.208zm0-6.696h-5.208v-6.2h5.208zm0-6.696h-5.208v-6.185h5.208zm0-6.696h-5.208v-6.2h5.208zm0-6.696h-5.208v-6.185h5.208zm5.704 53.568h-5.208v-6.185h5.208zm0-6.696h-5.208v-6.2h5.208zm0-6.696h-5.208v-6.185h5.208zm0-6.696h-5.208v-6.2h5.208zm0-6.696h-5.208v-6.185h5.208zm0-6.696h-5.208v-6.2h5.208zm0-6.696h-5.208v-6.185h5.208zm0-6.696h-5.208v-6.2h5.208zm5.704 26.784h-5.208v-6.2h5.208zm0-6.696h-5.208v-6.185h5.208zm0-6.696h-5.208v-6.2h5.208zm0-6.696h-5.208v-6.185h5.208zm0-6.696h-5.208v-6.2h5.208z" opacity=".2"/></g><path stroke="#263238" stroke-miterlimit="10" d="M172.607 198.896c0 11.235.387 22.043.496 24.404h21.651c.297-3.502 2.162-25.296 3.12-33.108 1.046-8.537 7.911-21.244 7.911-25.792s1.394-3.83-4.876-7.138c-6.269-3.308-20.098-10.451-22.012-11.324s-4.008-2.976-4.008-2.976.694 4.355.496 16.195-2.778 27.037-2.778 39.739Z"/><path fill="#263238" stroke="#263238" stroke-miterlimit="10" d="M174.89 143.007s.694 4.355.496 16.194c-.04 2.976-.243 6.19-.496 9.504.595-.819 2.514-3.433 2.976-3.582.52-.173 3.308 2.441 5.57 2.788 2.261.347 3.134.347.699-2.267s-3.472-10.272-4.355-16.021a22.3 22.3 0 0 0-.808-3.63h-.06c-1.934-.893-4.022-2.986-4.022-2.986Z"/><path stroke="#263238" stroke-miterlimit="10" d="M189.179 196.872c1.602-.729 2.862-1.359 2.862-1.359l.591 4.553s-8.671 3.82-13.517 4.112c-4.845.293-5.287.442-5.287.442l.144-4.405"/><path stroke="#263238" stroke-miterlimit="10" d="M184.84 198.653c.888-.298 1.929-.719 2.946-1.161M175.585 199.774a58 58 0 0 0 7.569-.69M192.631 200.067l.292 3.526"/><path fill="#fff" d="M126.177 223.309h24.364c.054-1.909.758-26.179 1.235-38.564.496-12.896 9.245-32.458 9.245-32.458s1.171-2.758-.069-3.998-4.216-.744-6.448.992-22.816 10.664-24.056 11.904-.992 5.456-1.488 10.416-8.68 39.184-8.68 39.184-2.232.496-2.976.992-.744 1.984-.744 1.984.992.248 3.968 1.736c2.737 1.369 5.262 6.925 5.649 7.812"/><path fill="#000" d="M157.728 157.961v2.535q.251-.684.496-1.324v-1.211h.466l.193-.496h-.659v-6.185h3.125c.034-.153.074-.322.099-.496h-3.224v-3.115c-.164.025-.328.05-.496.09v3.025h-5.208v-.337l-.496.253v.084h-.169l-.992.496h1.161v6.2h-5.208v-4.265l-.496.233v4.017h-5.208v-1.582l-.496.233v1.349h-2.882l-1.052.496h3.934v6.215h-5.208v-5.604l-.496.238v5.366h-5.208v-1.25a44 44 0 0 0-.496 5.456v2.48h-.179l-.044.496h.223v6.21h-1.335l-.104.496h1.439v6.2h-2.783c-.035.164-.074.333-.109.496h2.892v6.2h-4.291c-.039.169-.074.333-.114.496h4.405v6.2H124v-2.728l-.496 2.143v.561h-.129l-.114.496h.243v6.224h-1.697l-.119.496h1.816v6.2h-4.211q-.76.204-1.488.496v2.699q.221.087.496.213v-2.912h5.203v6.944q.258.37.496.749v-7.688h5.208v11.78h.496v-11.8h5.208v11.78h.496v-11.78h5.208v11.78h.496v-11.78h5.208v11.78h.496v-11.78h4.072v-.496h-4.072v-6.185h4.28v-.496h-4.28v-6.2h4.493v-.496h-4.493v-6.2h4.717v-.496h-4.717v-6.2h4.96c0-.163 0-.327.025-.496h-4.985v-6.2h5.208v3.666c.129-1.057.292-2.143.496-3.244v-.422h.079c.03-.163.065-.327.094-.496h-.173v-6.2h1.661c.045-.163.095-.327.139-.496h-1.8v-6.2h3.72c.059-.163.114-.332.168-.496h-3.888v-6.2zm-5.208-6.681h5.208v6.2h-5.208zm-23.312 59.768H124v-6.2h5.208zm0-6.696H124v-6.2h5.208zm5.704 6.696h-5.208v-6.2h5.208zm0-6.696h-5.208v-6.2h5.208zm0-6.696h-5.208v-6.2h5.208zm0-6.696h-5.208v-6.2h5.208zm0-6.696h-5.208v-6.2h5.208zm0-6.696h-5.208v-6.2h5.208zm0-6.696h-5.208v-6.2h5.208zm5.704 40.176h-5.208v-6.2h5.208zm0-6.696h-5.208v-6.2h5.208zm0-6.696h-5.208v-6.2h5.208zm0-6.696h-5.208v-6.2h5.208zm0-6.696h-5.208v-6.2h5.208zm0-6.696h-5.208v-6.2h5.208zm0-6.696h-5.208v-6.2h5.208zm5.704 40.176h-5.208v-6.2h5.208zm0-6.696h-5.208v-6.2h5.208zm0-6.696h-5.208v-6.2h5.208zm0-6.696h-5.208v-6.2h5.208zm0-6.696h-5.208v-6.2h5.208zm0-6.696h-5.208v-6.2h5.208zm0-6.696h-5.208v-6.2h5.208zm0-6.696h-5.208v-6.2h5.208zm5.704 13.392h-5.208v-6.2h5.208zm0-6.696h-5.208v-6.2h5.208zm0-6.696h-5.208v-6.2h5.208z" opacity=".2"/><path stroke="#263238" stroke-miterlimit="10" d="M126.177 223.309h24.364c.054-1.909.758-26.179 1.235-38.564.496-12.896 9.245-32.458 9.245-32.458s1.171-2.758-.069-3.998-4.216-.744-6.448.992-22.816 10.664-24.056 11.904-.992 5.456-1.488 10.416-8.68 39.184-8.68 39.184-2.232.496-2.976.992-.744 1.984-.744 1.984.992.248 3.968 1.736c2.737 1.369 5.262 6.925 5.649 7.812Z"/><path fill="#263238" stroke="#263238" stroke-miterlimit="10" d="M116.56 213.776s.992.248 3.968 1.736 5.704 7.936 5.704 7.936h4.806c.302-.903 1.041-4.186-2.326-8.184-3.968-4.712-8.432-4.464-8.432-4.464s-2.232.496-2.976.992-.744 1.984-.744 1.984ZM157.956 147.699c-1.066 2.822-3.591 9.206-5.684 12.246-2.728 3.968-7.688 7.192-5.952 8.68s6.696-3.224 6.696-3.224 1.24 3.472 1.488 4.464a.4.4 0 0 0 .065.124 156 156 0 0 1 6.447-17.702s1.171-2.758-.069-3.998c-.64-.645-1.731-.813-2.991-.59Z"/><path stroke="#263238" stroke-miterlimit="10" d="M139.843 171.641q.213-1.377.278-2.767M135.904 223.929s.744-15.872.744-25.048c0-6.612 1.801-17.732 2.813-24.542"/><path stroke="#263238" stroke-miterlimit="10" d="M137.143 195.424s3.968 1.24 5.952 1.488l5.952.744-.451 5.62s-.293-.164-4.757-1.652-7.192-2.728-7.192-2.728"/><path stroke="#263238" stroke-miterlimit="10" d="M148.596 203.261s-.292 11.011-.292 12.499-4.464.496-4.464.496"/><path fill="#9E9E9E" stroke="#263238" stroke-miterlimit="10" d="M152.158 142.461s4.677 6.726 8.864 9.826c4.186 3.1 7.757-1.24 10.55-5.892 2.792-4.653 4.652-8.065 6.046-12.098 1.394-4.032 0-10.699-5.58-15.971s-18.615-13.03-21.869-8.998c-3.254 4.033-6.358 12.896-4.191 20.47a40 40 0 0 0 6.18 12.663Z"/><path stroke="#263238" stroke-linecap="round" stroke-miterlimit="10" stroke-width="2" d="M150.189 127.993a9.43 9.43 0 0 1 5.412 0"/><path fill="#263238" d="M154.19 132.144c.149.804-.039 1.513-.421 1.583-.382.069-.804-.526-.952-1.335-.149-.808.039-1.512.421-1.582.382-.069.804.526.952 1.334M167.989 132.358c.144.803-.044 1.488-.421 1.582s-.804-.526-.953-1.334c-.148-.809.04-1.513.422-1.582s.803.525.952 1.334"/><path stroke="#263238" stroke-miterlimit="10" d="M157.769 143.295c1.792.617 3.687.88 5.58.773 3.258-.153 6.051-2.48 6.051-2.48"/><path fill="#263238" stroke="#263238" stroke-miterlimit="10" d="M150.65 112.756s6.889 15.713 7.752 16.145c.863.431 2.584-4.737 2.584-4.737s2.366 4.3 5.173 5.595 3.661-.858 3.661-.858a48 48 0 0 1 4.092 2.584l1.076.858 1.077 3.874s-3.229 10.55-2.153 11.844c1.076 1.295 7.103-.431 7.103-.431s-1.488 2.152.431 2.152 5.382.432 10.332-6.244 5.381-17.435 5.381-17.435 2.366 2.579 2.585-.65-2.798-8.61-2.798-8.61 4.732 4.737 4.305-.213c-.426-4.95-3.229-10.55-4.305-11.84s-7.539-4.96-7.539-4.96 2.584-.431.65-3.447-9.042-3.874-11.627-3.874c-2.584 0-7.965.863-7.965.863s3.447-6.676-.214-7.108-10.118 6.677-10.118 6.677-6.448-5.169-8.397-4.092-.645 2.584-.645 2.584-8.392.645-10.763 4.305.431 5.813.431 5.813-15.068 10.332-12.702 14.206 6.676.218 6.676.218-6.031 15.5-5.168 16.576 4.96-.431 4.96-.431-.214 12.484 3.015 13.779 3.874-1.077 3.874-1.077 1.721 1.721 5.6 1.935 5.163-4.306 5.163-4.306-4.305-10.118-4.087-18.51 2.56-11.185 2.56-11.185Z"/><path fill="#9E9E9E" d="M159.319 130.885s-1.552 8.065-.312 9.771 5.585 0 5.892-.928"/><path stroke="#263238" stroke-miterlimit="10" d="M159.319 130.885s-1.552 8.065-.312 9.771 5.585 0 5.892-.928"/><path stroke="#263238" stroke-miterlimit="10" d="M152.88 135.85c3.384 0 6.126-2.015 6.126-4.499 0-2.485-2.742-4.499-6.126-4.499-3.383 0-6.125 2.014-6.125 4.499s2.742 4.499 6.125 4.499ZM167.613 135.542c3.383 0 6.125-2.014 6.125-4.499s-2.742-4.499-6.125-4.499-6.126 2.015-6.126 4.499c0 2.485 2.743 4.499 6.126 4.499Z"/><path stroke="#263238" stroke-miterlimit="10" d="M159.32 130.885s1.24-.928 2.168.158"/><path fill="#9E9E9E" stroke="#263238" stroke-miterlimit="10" d="M108.28 216.707s7.787-2.197 10.183-2.594 7.192 3.993 7.991 6.389c.798 2.395-.223 2.931-.223 2.931l-15.957-.531z"/><path fill="#9E9E9E" stroke="#263238" stroke-miterlimit="10" d="M111.104 215.934s5.877 2.202 7.346 3.085c1.468.883 1.026 2.644.148 3.521a8.3 8.3 0 0 1-3.675 1.766 36 36 0 0 1-4.112 0c-1.761-.149-3.378.149-4.846.149s-5.877-.441-5.877-.441l-1.325-.883s-2.48.734-4.404 1.488c-1.925.754-1.324-.883.144-2.059 1.468-1.175 5.143-4.112 5.733-4.404.591-.293 8.08-2.48 8.08-2.48z"/><path fill="#9E9E9E" d="M113.306 216.519s-3.824-1.761-4.851-1.761-8.373 2.48-9.4 3.229c-1.026.749-2.058 7.787-1.324 8.229s1.325-.883 1.488-1.761 2.208-5.585 2.208-5.585l-1.488 7.495s.59 1.17 1.175.144 4.261-8.08 4.553-8.522a5.4 5.4 0 0 1 1.325-1.026s-.734 3.233-1.325 6.319c-.59 3.085-.143 3.968.739 4.111.883.144 1.32-1.909 1.761-2.936.442-1.027 2.351-6.909 2.351-6.909"/><path stroke="#263238" stroke-miterlimit="10" d="M113.306 216.519s-3.824-1.761-4.851-1.761-8.373 2.48-9.4 3.229c-1.026.749-2.058 7.787-1.324 8.229s1.325-.883 1.488-1.761 2.208-5.585 2.208-5.585l-1.488 7.495s.59 1.17 1.175.144 4.261-8.08 4.553-8.522a5.4 5.4 0 0 1 1.325-1.026s-.734 3.233-1.325 6.319c-.59 3.085-.143 3.968.739 4.111.883.144 1.32-1.909 1.761-2.936.442-1.027 2.351-6.909 2.351-6.909"/><path fill="#9E9E9E" stroke="#263238" stroke-miterlimit="10" d="M117.552 219.46s-4.404 4.553-4.994 5.58c-.591 1.027-.586 1.176 1.031 1.176s6.612-3.234 7.048-3.676c.437-.441.298-1.761-.734-2.644a2.6 2.6 0 0 0-2.351-.436ZM145.059 218.954s-5.877 1.9-7.32 2.976-3.527 2.262-3.076 2.624 1.9 0 2.351-.362 2.53-.724 2.53-.724 2.44-1.449 4.34-2.619 3.343-2.44 1.175-1.895Z"/><path fill="#9E9E9E" stroke="#263238" stroke-miterlimit="10" d="M177.504 209.004s-16.368 2.976-22.291 5.055c-5.922 2.078-8.278 3.526-11.239 5.619s-8.963 6.047-8.07 6.741 4.003-1.741 4.529-2.262 4.349-2.088 4.349-2.088l2.56-1.309s-3.854 4.746-5.243 5.952-.451 1.959.595 1.612c1.047-.348 3.021-2.426 3.021-2.426l6.364-4.186s-2.614 3.66-3.834 4.702 1.393 1.92 1.919 1.047 3.135-3.135 3.135-3.135 4.35-2.262 5.396-3.135 3.656-3.308 3.656-3.308l19.503 1.567s1.22-.694.525-4.702c-.694-4.008-4.875-5.744-4.875-5.744Z"/><path fill="#fff" d="m190.737 178.183 9.577 23.689-15.5 5.397 4.355 12.712s11.131.03 19.84-.496c8.71-.526 14.821-5.778 13.427-12.043s-6.617-15.326-10.798-26.124-2.887-17.236-4.801-20.545c-1.915-3.308-7.316-4.181-7.316-4.181l-2.976-.496"/><path fill="#263238" d="M220.968 214.029v-2.48h1.295a6 6 0 0 0 .139-.496h-1.434v-6.205h.744c-.054-.158-.114-.327-.168-.496h-.576v-1.512a53 53 0 0 0-.496-1.255v2.767h-5.208v-6.2h3.74q-.109-.244-.218-.496h-3.522v-6.2h.695q-.119-.244-.228-.496h-.467v-1.036c-.163-.367-.332-.734-.496-1.106v2.142h-5.208v-6.2h3.472q-.105-.244-.203-.496h-3.269v-6.2h.928c-.055-.163-.104-.332-.154-.496h-.774v-2.827a61 61 0 0 1-.496-2.252v5.079h-5.208v-6.2h5l-.089-.496h-4.911v-6.2h4.073l-.075-.496h-3.998v-6.081a14 14 0 0 0-1.339-.63h-4.365v-1.111l-.496-.089v1.2h-1.463l-.134.496h1.597v6.215h-3.224l-.129.496h3.358v6.2h-4.994l-.134.496h5.123v6.2h-5.208v-5.882l-.496 1.88v3.968h-1.051l-.129.496h1.18v3.139l.496 1.225v-4.33h5.208v6.2h-4.464l.199.496h4.265v6.2h-1.736l.204.496h1.557v3.854l.496 1.225v-5.079h5.183v6.2h-4.756l.203.496h4.553v6.2h-5.208v-1.716l-.496.174v1.542h-4.434l-1.428.496h.158v6.2h-5.208v-4.464l-.496.174v4.266h-.144l.64 1.864v-1.368h5.208v8.432h.496v-8.432h5.208v8.367h.496v-8.358h5.208v8.199h.496v-8.199h5.208v7.936l.496-.039v-7.897h5.208v6.806l.496-.189v-6.617h5.208v3.115c.174-.203.343-.406.496-.615m-23.312-2.976h-5.208v-6.205h5.208zm5.704 0h-5.208v-6.205h5.208zm0-20.088h-5.208v-6.2h5.208zm0-6.696h-5.208v-6.205h5.208zm0-6.696h-5.208v-6.2h5.208zm0-6.696h-5.208v-6.205h5.208zm0-6.696h-5.208v-6.2h5.208zm5.704 46.872h-5.208v-6.205h5.208zm0-6.696h-5.208v-6.2h5.208zm0-6.696h-5.208v-6.205h5.208zm0-6.696h-5.208v-6.2h5.208zm0-6.696h-5.208v-6.205h5.208zm5.704 26.784h-5.208v-6.205h5.208zm0-6.696h-5.208v-6.2h5.208zm0-6.696h-5.208v-6.205h5.208zm.496 13.392v-6.205h5.208v6.2z" opacity=".2"/><path stroke="#263238" stroke-miterlimit="10" d="m190.737 178.183 9.577 23.689-15.5 5.397 4.355 12.712s11.131.03 19.84-.496c8.71-.526 14.821-5.778 13.427-12.043s-6.617-15.326-10.798-26.124-2.887-17.236-4.801-20.545c-1.915-3.308-7.316-4.181-7.316-4.181l-2.976-.496"/><path stroke="#263238" stroke-miterlimit="10" d="M209.639 199.462a69 69 0 0 0-9.325 2.405s6.617-4.355 10.273-4.702M214.073 199.253a9.6 9.6 0 0 0-2.073-.069"/><path fill="#263238" stroke="#263238" stroke-miterlimit="10" d="M189.344 205.344s3.521 3.368 4.563 5.977.66 9.697-.035 10.391c-.694.694-13.655.61-15.787-2.054-.556-.694 3.248-2.296 1.334-6.13s-2.788-4.176-2.788-4.176-1.567-.873 1.394-2.788 9.751-3.303 11.319-1.22Z"/><path fill="#263238" stroke="#263238" stroke-linejoin="round" d="M220.218 232.197h-12.856l-1.607-25.415h16.07z"/><path fill="#fff" stroke="#263238" stroke-linejoin="round" d="M222.54 206.822h-17.494v3.7h17.494z"/><path fill="#fff" stroke="#263238" stroke-linejoin="round" d="M222.54 206.961h-17.494l1.746-2.192h13.997zM220.69 224.742l.639-10.123h-15.078l.64 10.123z"/><path fill="#263238" stroke="#263238" stroke-linejoin="round" d="m146.131 233.889 15.842-4.186v2.142l-15.842 4.44z"/><path fill="#fff" stroke="#263238" stroke-linejoin="round" d="M161.974 229.703H79.147l-16.011 4.186h82.995z"/><path fill="#fff" stroke="#263238" stroke-linejoin="round" d="M146.131 186.025H63.136v50.26h82.995z"/><path fill="#263238" stroke="#263238" stroke-linejoin="round" d="M146.131 193.296c-18.054.858-28.808 17.499-44.784 28.649-14.562 10.168-32.547 11.904-38.192 12.177v2.163h82.976z"/><path fill="#fff" stroke="#263238" stroke-miterlimit="10" d="M146.131 233.889H63.136v2.395h82.995z"/><path fill="#fff" stroke="#263238" stroke-linecap="round" stroke-linejoin="round" d="M38.565 217.307s-6.914-11.06-1.364-17.285 14.518-3.229 16.368 2.534c1.85 5.764-2.074 15.446-2.074 15.446z"/><path fill="#fff" d="M38.793 204.63c-1.151 0-5.53-1.612-6.915-3.686s-1.622-6.686 2.307-6.686c3.928 0 5.302 6.915 5.302 6.915l.228 2.534"/><path stroke="#263238" stroke-linecap="round" stroke-linejoin="round" d="M38.793 204.63c-1.151 0-5.53-1.612-6.915-3.686s-1.622-6.686 2.307-6.686c3.928 0 5.302 6.915 5.302 6.915l.228 2.534"/><path fill="#fff" d="M42.34 200.324c-1.033-.496-4.232-3.908-4.544-6.383-.313-2.475 1.542-6.701 5.049-4.96s1.657 8.556 1.657 8.556l-.928 2.371"/><path stroke="#263238" stroke-linecap="round" stroke-linejoin="round" d="M42.34 200.324c-1.033-.496-4.232-3.908-4.544-6.383-.313-2.475 1.542-6.701 5.049-4.96s1.657 8.556 1.657 8.556l-.928 2.371"/><path fill="#fff" d="M46.524 201.485c-.575-.992-1.349-5.6-.238-7.832s5-4.722 6.944-1.319c1.945 3.402-3.367 8.035-3.367 8.035l-2.089 1.458"/><path stroke="#263238" stroke-linecap="round" stroke-linejoin="round" d="M46.524 201.485c-.575-.992-1.349-5.6-.238-7.832s5-4.722 6.944-1.319c1.945 3.402-3.367 8.035-3.367 8.035l-2.089 1.458"/><path fill="#fff" d="M47.899 209.749c-.189-1.141.674-5.724 2.48-7.44 1.805-1.717 6.324-2.704 6.973 1.16.65 3.864-5.952 6.379-5.952 6.379l-2.48.645"/><path stroke="#263238" stroke-linecap="round" stroke-linejoin="round" d="M47.899 209.749c-.189-1.141.674-5.724 2.48-7.44 1.805-1.717 6.324-2.704 6.973 1.16.65 3.864-5.952 6.379-5.952 6.379l-2.48.645"/><path stroke="#fff" stroke-linecap="round" stroke-linejoin="round" d="m32.385 198.162.779 1.225M34.611 201.167l1.22.997M33.277 195.826l1.22 1.78M36.168 199.055l1.334 2.445M39.278 193.157l.447 1.334M40.837 196.937l.779 1.116M40.504 190.489l1.002 2.222M36.61 206.172l.338 1.999M37.611 210.061l.447 1.672M38.724 206.282l.446 2.222M40.172 210.061l.332 1.672M40.95 203.39l.664 3.115M42.507 209.505l.109 1.449M43.728 202.388l.555 2.891M44.284 208.285l.223 3.001M46.956 203.499v2.45M46.62 209.064l.114 1.89M49.734 191.932l-.555 1.339M48.955 194.824l-.556 1.894M52.179 194.492l-.888 1.78M49.401 198.276l-1.002 1.111M47.288 194.382l-.332 1.444M52.18 202.388l-1.221 2.004M50.18 205.612l-.67 1.78M51.184 208.285l1.999-1.116M54.406 202.388l-1.002 1.671M55.409 204.278l-1.335 1.002"/><path fill="#263238" stroke="#263238" stroke-linecap="round" stroke-linejoin="round" d="M53.97 213.449H35.063v18.907H53.97z"/></svg>